<svg xmlns="http://www.w3.org/2000/svg" version="1.1" xmlns:xlink="http://www.w3.org/1999/xlink" xmlns:svgjs="http://svgjs.com/svgjs" width="31" height="30"><svg width="31" height="30" viewBox="0 0 31 30" fill="none" xmlns="http://www.w3.org/2000/svg">
<path fill-rule="evenodd" clip-rule="evenodd" d="M11.2968 0C0.548982 3.3437 -3.68037 15.3087 3.70798 24.6799C7.21586 21.1689 6.44545 16.0428 4.37419 10.4274C7.68 15.9418 16.6771 25.4172 7.0943 27.4585C13.9396 29.5929 16.0882 24.6736 14.1859 20.0812C11.3237 13.168 2.55078 7.64094 11.2968 0Z" fill="#64BC46"></path>
<path fill-rule="evenodd" clip-rule="evenodd" d="M19.1525 29.5439C29.9003 26.2002 34.1297 14.2352 26.7413 4.86401C23.2334 8.37506 24.0038 13.5011 26.0751 19.1166C22.7693 13.6022 13.7722 4.12676 23.355 2.08549C16.5097 -0.0489252 14.3611 4.87033 16.2634 9.46279C19.1256 16.3759 27.8969 21.903 19.1525 29.5455V29.5439Z" fill="#64BC46"></path>
</svg><style>@media (prefers-color-scheme: light) { :root { filter: none; } }
</style></svg>