<svg width="91" height="30" viewBox="0 0 91 30" fill="none" xmlns="http://www.w3.org/2000/svg">
<path fill-rule="evenodd" clip-rule="evenodd" d="M11.2968 0C0.548982 3.3437 -3.68037 15.3087 3.70798 24.6799C7.21586 21.1689 6.44545 16.0428 4.37419 10.4274C7.68 15.9418 16.6771 25.4172 7.0943 27.4585C13.9396 29.5929 16.0882 24.6736 14.1859 20.0812C11.3237 13.168 2.55078 7.64094 11.2968 0Z" fill="#64BC46"/>
<path fill-rule="evenodd" clip-rule="evenodd" d="M19.1525 29.5439C29.9003 26.2002 34.1297 14.2352 26.7413 4.86401C23.2334 8.37506 24.0038 13.5011 26.0751 19.1166C22.7693 13.6022 13.7722 4.12676 23.355 2.08549C16.5097 -0.0489252 14.3611 4.87033 16.2634 9.46279C19.1256 16.3759 27.8969 21.903 19.1525 29.5455V29.5439Z" fill="#64BC46"/>
<path d="M35.3768 17.6271L36.2096 17.1248C36.7956 18.2044 37.472 18.7442 38.2388 18.7442C38.5693 18.7442 38.8799 18.667 39.1707 18.5128C39.4616 18.3586 39.6819 18.1537 39.8317 17.8981C39.9815 17.6425 40.0564 17.3693 40.0564 17.0785C40.0564 16.7524 39.9463 16.4307 39.726 16.1135C39.4175 15.6772 38.8557 15.2322 38.0405 14.7783C37.2209 14.1614 36.7141 13.7141 36.5202 13.4365C36.1721 12.9783 35.9981 12.4781 35.9981 11.9361C35.9981 11.5087 36.0994 11.1209 36.3021 10.7728C36.5048 10.4247 36.7912 10.1493 37.1614 9.94659C37.5359 9.73949 37.9413 9.63594 38.3776 9.63594C38.8358 9.63594 39.2655 9.75271 39.6665 9.98625C40.0675 10.2154 40.4927 10.6362 40.9422 11.2487L40.1424 11.8502C39.7766 11.3655 39.4638 11.046 39.2038 10.8918C38.9438 10.7332 38.6596 10.6538 38.3511 10.6538C37.959 10.6538 37.6373 10.775 37.3861 11.0174C37.1349 11.2553 37.0094 11.5484 37.0094 11.8965C37.0094 12.108 37.0534 12.3151 37.1416 12.5178C37.2297 12.7205 37.3927 12.9364 37.6307 13.1655C37.7585 13.2933 38.1815 13.6216 38.8997 14.1504C39.7458 14.7761 40.3252 15.2939 40.6381 15.7037C40.9554 16.1135 41.114 16.5629 41.114 17.0521C41.114 17.7659 40.843 18.385 40.301 18.9094C39.7634 19.4338 39.1091 19.696 38.3379 19.696C37.7386 19.696 37.1966 19.5373 36.7119 19.2201C36.2272 18.9028 35.7822 18.3718 35.3768 17.6271ZM46.2564 12.0154C47.3712 12.0154 48.2966 12.4186 49.0325 13.225C49.7111 13.9609 50.0504 14.8356 50.0504 15.8491C50.0592 18.352 50.0592 19.6232 50.0504 19.6629C49.6273 19.6629 49.2991 19.6629 49.0655 19.6629C49.0655 19.6321 49.0655 19.0835 49.0655 18.0171C48.55 18.9777 47.6136 19.5153 46.2564 19.6299C45.1459 19.6299 44.2382 19.2531 43.5332 18.4996C42.8325 17.7417 42.4822 16.8582 42.4822 15.8491C42.4822 14.8444 42.8149 13.9719 43.4803 13.2316C44.2162 12.4208 45.1415 12.0154 46.2564 12.0154ZM46.2564 12.9276C45.4852 12.9276 44.8221 13.214 44.2668 13.7868C43.7116 14.3597 43.434 15.0515 43.434 15.8623C43.434 16.3867 43.575 16.8912 43.857 17.3759C44.1435 17.8606 44.626 18.2705 45.3046 18.6053C47.0055 18.9843 48.2151 18.211 48.9333 16.2853C48.973 15.6684 48.9069 15.078 48.735 14.5139C48.6116 14.2583 48.442 14.016 48.2261 13.7868C47.6841 13.214 47.0275 12.9276 46.2564 12.9276ZM51.7358 12.2005H52.6744V15.5847C52.6744 16.4131 52.7185 16.9816 52.8066 17.29C52.9388 17.7351 53.1922 18.0876 53.5667 18.3476C53.9413 18.6031 54.3908 18.7309 54.9151 18.7309C55.4351 18.7309 55.8757 18.6053 56.2371 18.3542C56.5984 18.103 56.8474 17.7725 56.984 17.3627C57.0809 17.0851 57.1294 16.4924 57.1294 15.5847V12.2005H58.0812V15.7632C58.0812 16.7634 57.9622 17.5169 57.7243 18.0237C57.4907 18.526 57.1404 18.9204 56.6733 19.2068C56.2062 19.4888 55.6202 19.6299 54.9151 19.6299C54.2057 19.6299 53.6152 19.4888 53.1437 19.2068C52.6722 18.9204 52.3197 18.5216 52.0862 18.0105C51.8526 17.4949 51.7358 16.7216 51.7358 15.6905V12.2005ZM60.1434 16.8736L60.1302 16.1003C60.117 15.7213 60.1324 15.3996 60.1765 15.1352C60.2734 14.3024 60.4849 13.6921 60.811 13.3043C61.1283 12.965 61.4522 12.7029 61.7826 12.5178C62.329 12.2842 62.9526 12.1741 63.6532 12.1873C64.1996 12.1873 64.7041 12.3261 65.1668 12.6037C65.6339 12.8769 65.9666 13.2471 66.1649 13.7141C66.3632 14.1768 66.4623 14.9039 66.4623 15.8954V19.6232H65.537V16.1664C65.537 15.3291 65.5017 14.7695 65.4312 14.4875C65.3211 14.0072 65.1029 13.6679 64.7769 13.4696C64.4508 13.2669 63.9683 13.1655 63.3293 13.1655C62.7653 13.1655 62.263 13.3286 61.8223 13.6547C61.3817 13.9807 61.1768 14.4258 61.2076 14.9898C61.1239 15.3512 61.082 16.0099 61.082 16.9661V19.6232H60.1434V16.8736ZM71.8757 12.0154C72.9906 12.0154 73.9159 12.4186 74.6518 13.225C75.3304 13.9609 75.6697 14.8356 75.6697 15.8491C75.6785 18.352 75.6785 19.6232 75.6697 19.6629C75.2467 19.6629 74.9184 19.6629 74.6848 19.6629C74.6848 19.6321 74.6848 19.0835 74.6848 18.0171C74.1693 18.9777 73.2329 19.5153 71.8757 19.6299C70.7653 19.6299 69.8575 19.2531 69.1525 18.4996C68.4519 17.7417 68.1016 16.8582 68.1016 15.8491C68.1016 14.8444 68.4342 13.9719 69.0996 13.2316C69.8355 12.4208 70.7609 12.0154 71.8757 12.0154ZM71.8757 12.9276C71.1046 12.9276 70.4414 13.214 69.8862 13.7868C69.331 14.3597 69.0534 15.0515 69.0534 15.8623C69.0534 16.3867 69.1944 16.8912 69.4764 17.3759C69.7628 17.8606 70.2453 18.2705 70.9239 18.6053C72.6248 18.9843 73.8344 18.211 74.5527 16.2853C74.5923 15.6684 74.5262 15.078 74.3544 14.5139C74.231 14.2583 74.0613 14.016 73.8454 13.7868C73.3034 13.214 72.6468 12.9276 71.8757 12.9276ZM77.6262 9.80779H83.0263V10.7728H78.6044V13.8397H81.2285V14.8047H78.6044V19.61H77.6262V9.80779ZM84.0641 17.6271L84.8969 17.1248C85.483 18.2044 86.1593 18.7442 86.9261 18.7442C87.2566 18.7442 87.5672 18.667 87.858 18.5128C88.1489 18.3586 88.3692 18.1537 88.519 17.8981C88.6688 17.6425 88.7438 17.3693 88.7438 17.0785C88.7438 16.7524 88.6336 16.4307 88.4133 16.1135C88.1048 15.6772 87.543 15.2322 86.7278 14.7783C85.9082 14.1614 85.4014 13.7141 85.2075 13.4365C84.8594 12.9783 84.6854 12.4781 84.6854 11.9361C84.6854 11.5087 84.7867 11.1209 84.9894 10.7728C85.1921 10.4247 85.4785 10.1493 85.8487 9.94659C86.2232 9.73949 86.6286 9.63594 87.0649 9.63594C87.5232 9.63594 87.9528 9.75271 88.3538 9.98625C88.7548 10.2154 89.18 10.6362 89.6295 11.2487L88.8297 11.8502C88.4639 11.3655 88.1511 11.046 87.8911 10.8918C87.6311 10.7332 87.3469 10.6538 87.0384 10.6538C86.6463 10.6538 86.3246 10.775 86.0734 11.0174C85.8222 11.2553 85.6967 11.5484 85.6967 11.8965C85.6967 12.108 85.7407 12.3151 85.8289 12.5178C85.917 12.7205 86.08 12.9364 86.318 13.1655C86.4458 13.2933 86.8688 13.6216 87.587 14.1504C88.4331 14.7761 89.0125 15.2939 89.3254 15.7037C89.6427 16.1135 89.8013 16.5629 89.8013 17.0521C89.8013 17.7659 89.5303 18.385 88.9883 18.9094C88.4507 19.4338 87.7964 19.696 87.0252 19.696C86.4259 19.696 85.8839 19.5373 85.3992 19.2201C84.9145 18.9028 84.4695 18.3718 84.0641 17.6271Z" fill="white"/>
</svg>
